<mxfile host="app.diagrams.net" modified="2024-02-25T12:27:09.192Z" agent="Mozilla/5.0 (Macintosh; Intel Mac OS X 10.15; rv:122.0) Gecko/20100101 Firefox/122.0" version="23.1.4" etag="N3nkPedleaNvIUcHCaJp" type="github">
  <diagram name="第 1 页" id="ChUgE9VHgPrhCT2oChrM">
    <mxGraphModel>
      <root>
        <mxCell id="0" />
        <mxCell id="1" parent="0" />
      </root>
    </mxGraphModel>
  </diagram>
</mxfile>
